<?xml version="1.0" encoding="iso-8859-1"?>
<!-- Generator: Adobe Illustrator 18.0.0, SVG Export Plug-In . SVG Version: 6.00 Build 0)  -->
<!DOCTYPE svg PUBLIC "-//W3C//DTD SVG 1.1//EN" "http://www.w3.org/Graphics/SVG/1.1/DTD/svg11.dtd">
<svg version="1.1" id="Capa_1" xmlns="http://www.w3.org/2000/svg" xmlns:xlink="http://www.w3.org/1999/xlink" x="0px" y="0px"
	 viewBox="0 0 231.583 231.583" style="enable-background:new 0 0 231.583 231.583;" xml:space="preserve">
<path d="M81.96,214.25c0,9.573-7.76,17.333-17.333,17.333s-17.333-7.76-17.333-17.333s7.76-17.333,17.333-17.333
	S81.96,204.677,81.96,214.25z M166.626,196.917c-9.573,0-17.333,7.76-17.333,17.333s7.76,17.333,17.333,17.333
	c9.573,0,17.333-7.76,17.333-17.333S176.199,196.917,166.626,196.917z M158.293,128.792c0,7.18-5.82,13-13,13h-59
	c-7.18,0-13-5.82-13-13v-69c0-7.18,5.82-13,13-13h59c7.18,0,13,5.82,13,13V128.792z M146.293,73.625
	c0-2.669-2.164-4.833-4.833-4.833h-13.333c-2.669,0-4.833,2.164-4.833,4.833v13.333c0,2.669,2.164,4.833,4.833,4.833h13.333
	c2.669,0,4.833-2.164,4.833-4.833V73.625z M28.876,120.41c0-3.322,3.337-6.348,7-6.348s7,3.05,7,6.399c0,4.143,3.357,7.5,7.5,7.5
	s7.333-3.357,7.333-7.5c0-8.961-5.416-16.844-14.416-19.968V73.792h7.333c4.143,0,7.5-3.357,7.5-7.5s-3.357-7.5-7.5-7.5h-14.5
	c-4.143,0-7.833,3.357-7.833,7.5v34.015c-8,2.982-14.584,10.983-14.584,20.103c0,4.143,3.441,7.5,7.583,7.5
	S28.876,124.552,28.876,120.41z M203.293,100.425V66.292c0-4.143-3.024-7.5-7.167-7.5h-14.5c-4.143,0-7.5,3.357-7.5,7.5
	s3.357,7.5,7.5,7.5h6.667v26.574c-8,3.035-14.417,11.013-14.417,20.096c0,4.143,3.441,7.5,7.583,7.5s7.542-3.357,7.542-7.5
	c0-3.35,3.358-6.399,7.021-6.399s7.01,3.025,7.01,6.348c0,4.143,3.363,7.5,7.505,7.5s7.336-3.357,7.336-7.5
	C217.874,111.41,212.293,103.497,203.293,100.425z M98.376,32.792h9.917v-12c0-4.143,3.357-7.5,7.5-7.5s7.5,3.357,7.5,7.5v12h10.083
	c4.142,0,6.917-3.504,6.917-7.646v-0.073c0-13.807-11.193-25.073-25-25.073s-25,11.193-25,25v0.146
	C90.293,29.288,94.234,32.792,98.376,32.792z M196.293,156.792H34.96c-9.757,0-17.667,7.701-17.667,17.458v20.333
	c0,8.878,6.555,16.204,15.084,17.457c1.141-16.801,15.164-30.353,32.249-30.353c17.156,0,31.228,14.104,32.265,30.104h37.469
	c1.037-16,15.109-30.104,32.265-30.104c17.085,0,30.775,13.437,31.916,30.238c8.529-1.253,14.751-8.465,14.751-17.343V174.25
	C213.293,164.493,206.05,156.792,196.293,156.792z"/>
<g>
</g>
<g>
</g>
<g>
</g>
<g>
</g>
<g>
</g>
<g>
</g>
<g>
</g>
<g>
</g>
<g>
</g>
<g>
</g>
<g>
</g>
<g>
</g>
<g>
</g>
<g>
</g>
<g>
</g>
</svg>
